TITLE ""
FILE "1Q_t_0678-0687.mp3" MP3
  TRACK 01 AUDIO
    TITLE "1Q_t_0678-0687_01"
    INDEX 01 00:00:00
  TRACK 02 AUDIO
    TITLE "1Q_t_0678-0687_02"
    INDEX 01 00:01:29
  TRACK 03 AUDIO
    TITLE "1Q_t_0678-0687_03"
    INDEX 01 00:01:39
  TRACK 04 AUDIO
    TITLE "1Q_t_0678-0687_04"
    INDEX 01 00:04:24
  TRACK 05 AUDIO
    TITLE "1Q_t_0678-0687_05"
    INDEX 01 00:04:34
  TRACK 06 AUDIO
    TITLE "1Q_t_0678-0687_06"
    INDEX 01 00:10:22
  TRACK 07 AUDIO
    TITLE "1Q_t_0678-0687_07"
    INDEX 01 00:10:67
  TRACK 08 AUDIO
    TITLE "1Q_t_0678-0687_08"
    INDEX 01 00:12:27
  TRACK 09 AUDIO
    TITLE "1Q_t_0678-0687_09"
    INDEX 01 00:12:35
  TRACK 10 AUDIO
    TITLE "1Q_t_0678-0687_10"
    INDEX 01 00:13:64
  TRACK 11 AUDIO
    TITLE "1Q_t_0678-0687_11"
    INDEX 01 00:13:70
  TRACK 12 AUDIO
    TITLE "1Q_t_0678-0687_12"
    INDEX 01 00:19:66
  TRACK 13 AUDIO
    TITLE "1Q_t_0678-0687_13"
    INDEX 01 00:20:37
  TRACK 14 AUDIO
    TITLE "1Q_t_0678-0687_14"
    INDEX 01 00:21:40
  TRACK 15 AUDIO
    TITLE "1Q_t_0678-0687_15"
    INDEX 01 00:21:48
  TRACK 16 AUDIO
    TITLE "1Q_t_0678-0687_16"
    INDEX 01 00:24:28
  TRACK 17 AUDIO
    TITLE "1Q_t_0678-0687_17"
    INDEX 01 00:24:34
  TRACK 18 AUDIO
    TITLE "1Q_t_0678-0687_18"
    INDEX 01 00:30:06
  TRACK 19 AUDIO
    TITLE "1Q_t_0678-0687_19"
    INDEX 01 00:30:49
  TRACK 20 AUDIO
    TITLE "1Q_t_0678-0687_20"
    INDEX 01 00:32:04
  TRACK 21 AUDIO
    TITLE "1Q_t_0678-0687_21"
    INDEX 01 00:32:12
  TRACK 22 AUDIO
    TITLE "1Q_t_0678-0687_22"
    INDEX 01 00:33:51
  TRACK 23 AUDIO
    TITLE "1Q_t_0678-0687_23"
    INDEX 01 00:33:57
  TRACK 24 AUDIO
    TITLE "1Q_t_0678-0687_24"
    INDEX 01 00:39:67
  TRACK 25 AUDIO
    TITLE "1Q_t_0678-0687_25"
    INDEX 01 00:40:37
  TRACK 26 AUDIO
    TITLE "1Q_t_0678-0687_26"
    INDEX 01 00:41:50
  TRACK 27 AUDIO
    TITLE "1Q_t_0678-0687_27"
    INDEX 01 00:41:60
  TRACK 28 AUDIO
    TITLE "1Q_t_0678-0687_28"
    INDEX 01 00:44:27
  TRACK 29 AUDIO
    TITLE "1Q_t_0678-0687_29"
    INDEX 01 00:44:35
  TRACK 30 AUDIO
    TITLE "1Q_t_0678-0687_30"
    INDEX 01 00:50:02
  TRACK 31 AUDIO
    TITLE "1Q_t_0678-0687_31"
    INDEX 01 00:50:51
  TRACK 32 AUDIO
    TITLE "1Q_t_0678-0687_32"
    INDEX 01 00:52:07
  TRACK 33 AUDIO
    TITLE "1Q_t_0678-0687_33"
    INDEX 01 00:52:19
  TRACK 34 AUDIO
    TITLE "1Q_t_0678-0687_34"
    INDEX 01 00:53:67
  TRACK 35 AUDIO
    TITLE "1Q_t_0678-0687_35"
    INDEX 01 00:53:73
  TRACK 36 AUDIO
    TITLE "1Q_t_0678-0687_36"
    INDEX 01 00:59:09
  TRACK 37 AUDIO
    TITLE "1Q_t_0678-0687_37"
    INDEX 01 00:59:54
  TRACK 38 AUDIO
    TITLE "1Q_t_0678-0687_38"
    INDEX 01 01:01:16
  TRACK 39 AUDIO
    TITLE "1Q_t_0678-0687_39"
    INDEX 01 01:01:24
  TRACK 40 AUDIO
    TITLE "1Q_t_0678-0687_40"
    INDEX 01 01:03:07
  TRACK 41 AUDIO
    TITLE "1Q_t_0678-0687_41"
    INDEX 01 01:03:15
  TRACK 42 AUDIO
    TITLE "1Q_t_0678-0687_42"
    INDEX 01 01:09:41
  TRACK 43 AUDIO
    TITLE "1Q_t_0678-0687_43"
    INDEX 01 01:10:17
  TRACK 44 AUDIO
    TITLE "1Q_t_0678-0687_44"
    INDEX 01 01:11:20
  TRACK 45 AUDIO
    TITLE "1Q_t_0678-0687_45"
    INDEX 01 01:11:30
  TRACK 46 AUDIO
    TITLE "1Q_t_0678-0687_46"
    INDEX 01 01:12:41
  TRACK 47 AUDIO
    TITLE "1Q_t_0678-0687_47"
    INDEX 01 01:12:49
  TRACK 48 AUDIO
    TITLE "1Q_t_0678-0687_48"
    INDEX 01 01:17:33
  TRACK 49 AUDIO
    TITLE "1Q_t_0678-0687_49"
    INDEX 01 01:18:03
  TRACK 50 AUDIO
    TITLE "1Q_t_0678-0687_50"
    INDEX 01 01:19:12
  TRACK 51 AUDIO
    TITLE "1Q_t_0678-0687_51"
    INDEX 01 01:19:22
  TRACK 52 AUDIO
    TITLE "1Q_t_0678-0687_52"
    INDEX 01 01:22:59
  TRACK 53 AUDIO
    TITLE "1Q_t_0678-0687_53"
    INDEX 01 01:22:67
  TRACK 54 AUDIO
    TITLE "1Q_t_0678-0687_54"
    INDEX 01 01:27:09
  TRACK 55 AUDIO
    TITLE "1Q_t_0678-0687_55"
    INDEX 01 01:27:54
  TRACK 56 AUDIO
    TITLE "1Q_t_0678-0687_56"
    INDEX 01 01:28:68
  TRACK 57 AUDIO
    TITLE "1Q_t_0678-0687_57"
    INDEX 01 01:29:00
  TRACK 58 AUDIO
    TITLE "1Q_t_0678-0687_58"
    INDEX 01 01:30:10
  TRACK 59 AUDIO
    TITLE "1Q_t_0678-0687_59"
    INDEX 01 01:30:16
  TRACK 60 AUDIO
    TITLE "1Q_t_0678-0687_60"
    INDEX 01 01:36:53
